<svg data-v-423bf9ae="" xmlns="http://www.w3.org/2000/svg" viewBox="0 0 597 90" class="iconLeft"><!----><!----><!----><g data-v-423bf9ae="" id="c50d3b89-5867-43b6-96df-a246b79ad96e" fill="black" transform="matrix(6.302521336710863,0,0,6.302521336710863,79.23407776091238,-34.60084362915964)"><path d="M4.33 11.94L7.70 11.94L7.70 16.76L7.70 16.76Q6.99 17.09 6.14 17.24L6.14 17.24L6.14 17.24Q5.29 17.39 4.12 17.39L4.12 17.39L4.12 17.39Q2.65 17.39 1.86 16.98L1.86 16.98L1.86 16.98Q1.08 16.58 0.75 15.60L0.75 15.60L0.75 15.60Q0.42 14.63 0.42 12.81L0.42 12.81L0.42 12.81Q0.42 10.99 0.78 10.02L0.78 10.02L0.78 10.02Q1.15 9.04 2.03 8.63L2.03 8.63L2.03 8.63Q2.91 8.22 4.54 8.22L4.54 8.22L4.54 8.22Q5.25 8.22 6.08 8.33L6.08 8.33L6.08 8.33Q6.92 8.44 7.28 8.58L7.28 8.58L6.93 10.79L6.93 10.79Q6.43 10.68 5.80 10.61L5.80 10.61L5.80 10.61Q5.18 10.53 4.75 10.53L4.75 10.53L4.75 10.53Q3.99 10.53 3.71 10.74L3.71 10.74L3.71 10.74Q3.43 10.95 3.43 11.51L3.43 11.51L3.43 15.13L5.04 15.13L5.04 13.97L4.33 13.97L4.33 11.94ZM8.75 17.18L8.75 10.18L10.15 10.18L10.85 10.88L10.85 10.88Q12.08 9.97 13.65 9.97L13.65 9.97L13.65 9.97Q14.63 9.97 15.19 10.39L15.19 10.39L15.19 10.39Q15.75 10.82 15.75 11.58L15.75 11.58L15.75 17.18L12.95 17.18L12.95 12.28L12.10 12.28L12.10 12.28Q11.80 12.28 11.68 12.37L11.68 12.37L11.68 12.37Q11.55 12.46 11.55 12.67L11.55 12.67L11.55 17.18L8.75 17.18ZM20.51 17.39L20.51 17.39Q18.61 17.39 17.70 16.48L17.70 16.48L17.70 16.48Q16.80 15.58 16.80 13.68L16.80 13.68L16.80 13.68Q16.80 11.76 17.70 10.86L17.70 10.86L17.70 10.86Q18.59 9.97 20.51 9.97L20.51 9.97L20.51 9.97Q22.43 9.97 23.32 10.86L23.32 10.86L23.32 10.86Q24.22 11.76 24.22 13.68L24.22 13.68L24.22 13.68Q24.22 15.60 23.32 16.49L23.32 16.49L23.32 16.49Q22.43 17.39 20.51 17.39L20.51 17.39ZM19.81 15.29L20.66 15.29L20.66 15.29Q20.97 15.29 21.09 15.20L21.09 15.20L21.09 15.20Q21.21 15.12 21.21 14.90L21.21 14.90L21.21 12.07L20.36 12.07L20.36 12.07Q20.05 12.07 19.93 12.15L19.93 12.15L19.93 12.15Q19.81 12.24 19.81 12.46L19.81 12.46L19.81 15.29ZM34.16 9.97L34.16 9.97Q35.14 9.97 35.70 10.39L35.70 10.39L35.70 10.39Q36.26 10.82 36.26 11.58L36.26 11.58L36.26 17.18L33.46 17.18L33.46 12.28L32.75 12.28L32.75 12.28Q32.45 12.28 32.33 12.37L32.33 12.37L32.33 12.37Q32.20 12.46 32.20 12.67L32.20 12.67L32.20 17.18L29.40 17.18L29.40 12.28L28.69 12.28L28.69 12.28Q28.39 12.28 28.27 12.37L28.27 12.37L28.27 12.37Q28.14 12.46 28.14 12.67L28.14 12.67L28.14 17.18L25.34 17.18L25.34 10.18L26.74 10.18L27.44 10.88L27.44 10.88Q28.70 9.97 30.10 9.97L30.10 9.97L30.10 9.97Q30.72 9.97 31.17 10.14L31.17 10.14L31.17 10.14Q31.63 10.30 31.88 10.63L31.88 10.63L31.88 10.63Q32.96 9.97 34.16 9.97L34.16 9.97ZM41.30 15.34L41.30 15.34Q42.46 15.34 43.79 14.98L43.79 14.98L44.13 16.91L44.13 16.91Q42.69 17.39 41.02 17.39L41.02 17.39L41.02 17.39Q39.12 17.39 38.21 16.48L38.21 16.48L38.21 16.48Q37.31 15.58 37.31 13.68L37.31 13.68L37.31 13.68Q37.31 11.76 38.21 10.86L38.21 10.86L38.21 10.86Q39.10 9.97 41.02 9.97L41.02 9.97L41.02 9.97Q42.31 9.97 43.01 10.19L43.01 10.19L43.01 10.19Q43.71 10.40 44.01 10.91L44.01 10.91L44.01 10.91Q44.31 11.42 44.31 12.35L44.31 12.35L44.31 12.35Q44.31 13.20 43.92 13.71L43.92 13.71L43.92 13.71Q43.53 14.21 42.66 14.43L42.66 14.43L42.66 14.43Q41.80 14.66 40.32 14.66L40.32 14.66L40.32 15.29L40.32 15.29Q40.61 15.34 41.30 15.34L41.30 15.34ZM41.29 12.00L41.29 12.00Q40.74 12.00 40.53 12.11L40.53 12.11L40.53 12.11Q40.32 12.22 40.32 12.53L40.32 12.53L40.32 13.26L40.82 13.26L40.82 13.26Q41.37 13.26 41.58 13.13L41.58 13.13L41.58 13.13Q41.79 13.01 41.79 12.67L41.79 12.67L41.79 12.00L41.29 12.00ZM51.46 12.78L51.46 12.78Q52.07 12.92 52.47 13.48L52.47 13.48L52.47 13.48Q52.88 14.03 52.88 14.71L52.88 14.71L52.88 14.71Q52.88 15.90 52.14 16.54L52.14 16.54L52.14 16.54Q51.41 17.18 50.04 17.18L50.04 17.18L45.57 17.18L45.57 8.43L49.55 8.43L49.55 8.43Q51.07 8.43 51.76 8.97L51.76 8.97L51.76 8.97Q52.44 9.52 52.44 10.74L52.44 10.74L52.44 10.74Q52.44 11.35 52.17 11.90L52.17 11.90L52.17 11.90Q51.90 12.45 51.46 12.70L51.46 12.70L51.46 12.78ZM49.64 11.10L49.64 11.10Q49.64 10.71 49.53 10.58L49.53 10.58L49.53 10.58Q49.41 10.46 49.06 10.46L49.06 10.46L48.37 10.46L48.37 11.76L49.06 11.76L49.06 11.76Q49.41 11.76 49.53 11.63L49.53 11.63L49.53 11.63Q49.64 11.49 49.64 11.10L49.64 11.10ZM49.38 15.15L49.38 15.15Q49.73 15.15 49.86 14.99L49.86 14.99L49.86 14.99Q49.99 14.84 49.99 14.43L49.99 14.43L49.99 14.43Q49.99 14.03 49.87 13.87L49.87 13.87L49.87 13.87Q49.74 13.72 49.39 13.72L49.39 13.72L48.37 13.72L48.37 15.15L49.38 15.15ZM57.29 17.39L57.29 17.39Q55.38 17.39 54.48 16.48L54.48 16.48L54.48 16.48Q53.58 15.58 53.58 13.68L53.58 13.68L53.58 13.68Q53.58 11.76 54.47 10.86L54.47 10.86L54.47 10.86Q55.37 9.97 57.29 9.97L57.29 9.97L57.29 9.97Q59.21 9.97 60.10 10.86L60.10 10.86L60.10 10.86Q61.00 11.76 61.00 13.68L61.00 13.68L61.00 13.68Q61.00 15.60 60.10 16.49L60.10 16.49L60.10 16.49Q59.21 17.39 57.29 17.39L57.29 17.39ZM56.59 15.29L57.44 15.29L57.44 15.29Q57.75 15.29 57.87 15.20L57.87 15.20L57.87 15.20Q57.99 15.12 57.99 14.90L57.99 14.90L57.99 12.07L57.13 12.07L57.13 12.07Q56.83 12.07 56.71 12.15L56.71 12.15L56.71 12.15Q56.59 12.24 56.59 12.46L56.59 12.46L56.59 15.29ZM65.48 9.97L65.48 9.97Q67.14 9.97 67.92 10.56L67.92 10.56L67.92 10.56Q68.70 11.14 68.70 12.42L68.70 12.42L68.70 17.18L67.30 17.18L66.60 16.48L66.60 16.48Q66.07 16.93 65.46 17.16L65.46 17.16L65.46 17.16Q64.85 17.39 64.22 17.39L64.22 17.39L64.22 17.39Q62.94 17.39 62.36 16.81L62.36 16.81L62.36 16.81Q61.77 16.24 61.77 15.01L61.77 15.01L61.77 15.01Q61.77 14.15 62.13 13.65L62.13 13.65L62.13 13.65Q62.50 13.15 63.30 12.92L63.30 12.92L63.30 12.92Q64.11 12.70 65.48 12.70L65.48 12.70L65.90 12.70L65.90 12.07L65.90 12.07Q65.69 12.01 65.20 12.01L65.20 12.01L65.20 12.01Q63.90 12.01 62.43 12.38L62.43 12.38L62.09 10.44L62.09 10.44Q63.66 9.97 65.48 9.97L65.48 9.97ZM64.93 15.50L64.93 15.50Q65.48 15.50 65.69 15.39L65.69 15.39L65.69 15.39Q65.90 15.27 65.90 14.97L65.90 14.97L65.90 14.10L65.31 14.10L65.31 14.10Q64.76 14.10 64.55 14.22L64.55 14.22L64.55 14.22Q64.34 14.35 64.34 14.69L64.34 14.69L64.34 15.50L64.93 15.50ZM71.43 10.18L72.20 11.10L72.20 11.10Q73.02 10.23 74.27 9.97L74.27 9.97L74.44 12.68L74.44 12.68Q74.12 12.71 73.58 12.90L73.58 12.90L73.58 12.90Q73.05 13.09 72.83 13.24L72.83 13.24L72.83 17.18L70.03 17.18L70.03 10.18L71.43 10.18ZM79.34 8.08L82.14 7.87L82.14 17.18L80.74 17.18L80.22 16.48L80.22 16.48Q79.49 17.39 77.94 17.39L77.94 17.39L77.94 17.39Q76.37 17.39 75.65 16.50L75.65 16.50L75.65 16.50Q74.93 15.61 74.93 13.68L74.93 13.68L74.93 13.68Q74.93 11.75 75.65 10.86L75.65 10.86L75.65 10.86Q76.37 9.97 77.94 9.97L77.94 9.97L77.94 9.97Q78.74 9.97 79.34 10.21L79.34 10.21L79.34 8.08ZM78.79 15.29L78.79 15.29Q79.10 15.29 79.22 15.20L79.22 15.20L79.22 15.20Q79.34 15.12 79.34 14.90L79.34 14.90L79.34 12.07L78.48 12.07L78.48 12.07Q78.18 12.07 78.06 12.15L78.06 12.15L78.06 12.15Q77.94 12.24 77.94 12.46L77.94 12.46L77.94 15.29L78.79 15.29Z"></path></g><!----><g data-v-423bf9ae="" id="9780d0f9-3cdb-4fca-aec1-15730743e53b" transform="matrix(1.406247485433545,0,0,1.406247485433545,-14.003280960589102,1.0000357689801334)" stroke="none" fill="black"><circle cx="32.005" cy="43" r="1"></circle><circle cx="49.005" cy="58" r="1"></circle><path d="M50.69 45.534v-.007c2.719-4.377.676-8.665-.379-10.372 1.016-1.08 2.69-3.551 2.69-8.155 0-8.287-8.917-18.46-14.231-23.785A10.879 10.879 0 0 0 31.005 0H21.1a4.094 4.094 0 0 0-4.09 4.09 4.049 4.049 0 0 0 2.261 3.653l1.949.978C16.972 12.675 11.005 19.555 11.005 27c0 4.6 1.674 7.075 2.689 8.155-1.054 1.707-3.1 6-.376 10.377A16.571 16.571 0 0 0 12.1 47.7 24.1 24.1 0 0 0 10.005 58a6.006 6.006 0 0 0 6 6h32a5.985 5.985 0 0 0 6-6c0-6.55-2.069-10.612-3.315-12.466zM42.005 42a1 1 0 0 0-1 1v6.162c-.159.029-.324.065-.479.091a12.731 12.731 0 0 0-3.988 1.372 14.987 14.987 0 0 0-3.533 2.607V47a1 1 0 0 0-2 0v6.232a14.971 14.971 0 0 0-3.527-2.6 12.739 12.739 0 0 0-3.992-1.376c-.157-.026-.322-.062-.481-.091V43a1 1 0 0 0-2 0v5.693a10.494 10.494 0 0 1-5.676-3.751c-.112-.146-.214-.31-.315-.469-2.188-3.523-.385-7.067.431-8.353a18.576 18.576 0 0 0 3.9.443 13.334 13.334 0 0 0 6.929-1.793 6 6 0 0 0 11.466 0 13.331 13.331 0 0 0 6.929 1.793 18.568 18.568 0 0 0 3.9-.443c.818 1.288 2.62 4.83.435 8.347-.1.164-.206.328-.334.5a10.477 10.477 0 0 1-5.66 3.732V43a1 1 0 0 0-1.005-1zm-10-21c11.819 0 17.76 5.179 18.988 6.392-.105 4.4-1.913 6.248-2.422 6.679-6.153 1.47-9.636-.788-10.59-1.548a5.995 5.995 0 0 0-11.952 0c-.953.761-4.433 3.022-10.591 1.549-.51-.433-2.317-2.285-2.422-6.679C14.247 26.177 20.189 21 32.005 21zm4 12a4 4 0 1 1-4-4 4 4 0 0 1 4 4zM23.631 9.227c1.7-1.519 2.94-2.4 2.952-2.412a1 1 0 0 0-1.156-1.63c-.049.034-1.1.785-2.615 2.1l-2.654-1.332a2.064 2.064 0 0 1-1.153-1.863A2.092 2.092 0 0 1 21.1 2h9.91a8.9 8.9 0 0 1 6.352 2.626C41.038 8.315 49.075 17.068 50.7 24.5c-2.884-2.18-8.883-5.5-18.691-5.5-9.878 0-15.889 3.364-18.749 5.543 1.222-6.386 6.847-12.212 10.371-15.316zM13.908 48.55a15.245 15.245 0 0 1 .721-1.344 13.721 13.721 0 0 0 7.159 3.761c.469.1.928.187 1.377.261a10.509 10.509 0 0 1 2.84.906V57H12.033a21.757 21.757 0 0 1 1.875-8.45zM12.147 59h14.858a1 1 0 0 0 1-1v-4.686a12.862 12.862 0 0 1 3 3.022V62h-15a4 4 0 0 1-3.858-3zm38.7 1.829A4.014 4.014 0 0 1 48.005 62h-15v-5.664a12.82 12.82 0 0 1 3-3.021V58a1 1 0 0 0 1 1h8a1 1 0 0 0 0-2h-7v-4.867a10.523 10.523 0 0 1 2.842-.905c.447-.074.905-.158 1.375-.261a13.712 13.712 0 0 0 7.162-3.762A20.74 20.74 0 0 1 52.005 58a4.009 4.009 0 0 1-1.163 2.829z"></path><path d="M22.005 31a3 3 0 0 0 1.5-5.595 1 1 0 0 0-1.005 1.729A1 1 0 1 1 21 28a1 1 0 0 0-2 0 3 3 0 0 0 3.005 3zM42.005 31a3 3 0 1 0-3-3 3 3 0 0 0 3 3zm0-4a1 1 0 1 1-1 1 1 1 0 0 1 1-1z"></path></g><!----></svg>